<?xml version="1.0" standalone="no"?>
<!DOCTYPE svg PUBLIC "-//W3C//DTD SVG 1.1//EN" "http://www.w3.org/Graphics/SVG/1.1/DTD/svg11.dtd" >
<svg>
<metadata>
Created by FontForge 20090622 at Tue Nov 14 19:18:21 2017
 By deploy user
2009
</metadata>
<defs>
<font id="HighwayGothicCondensed" horiz-adv-x="405" >
  <font-face 
    font-family="Highway Gothic Condensed"
    font-weight="400"
    font-stretch="normal"
    units-per-em="1000"
    panose-1="0 0 4 0 0 0 0 0 0 0"
    ascent="800"
    descent="-200"
    x-height="489"
    cap-height="670"
    bbox="-47 -242 987 865"
    underline-thickness="20"
    underline-position="-123"
    unicode-range="U+0020-U+2122"
  />
<missing-glyph horiz-adv-x="500" 
d="M63 0v800h375v-800h-375zM125 63h250v675h-250v-675z" />
    <glyph glyph-name=".notdef" horiz-adv-x="500" 
d="M63 0v800h375v-800h-375zM125 63h250v675h-250v-675z" />
    <glyph glyph-name="NULL" horiz-adv-x="0" 
 />
    <glyph glyph-name="nonmarkingreturn" horiz-adv-x="0" 
 />
    <glyph glyph-name="space" unicode=" " horiz-adv-x="175" 
 />
    <glyph glyph-name="space" unicode="&#xa0;" horiz-adv-x="175" 
 />
    <glyph glyph-name="exclam" unicode="!" horiz-adv-x="175" 
d="M136 670v-251l-22 -254h-52l-23 253v252h97zM137 38q0 -20 -14.5 -35t-35.5 -15q-19 0 -34 15t-15 35t14.5 34.5t34.5 14.5q21 0 35.5 -14t14.5 -35z" />
    <glyph glyph-name="quotedbl" unicode="&#x22;" horiz-adv-x="415" 
d="M340 670l-21 -268h-51l-22 268h94zM169 670l-21 -268h-52l-21 268h94z" />
    <glyph glyph-name="numbersign" unicode="#" horiz-adv-x="531" 
d="M477 456l-7 -75h-85l-9 -92h85l-7 -73h-85l-24 -216h-72l21 216h-83l-23 -216h-75l23 216h-82l7 73h85l9 92h-85l8 75h84l21 214h75l-21 -214h83l21 214h75l-21 -214h82zM313 381h-83l-11 -92h82z" />
    <glyph glyph-name="dollar" unicode="$" horiz-adv-x="355" 
d="M325 148q0 -66 -29 -110.5t-69 -49.5v-75h-87v75q-48 8 -77.5 54t-32.5 125h89q2 -89 61 -92q53 4 54 73q2 44 -46.5 116t-86.5 119q-28 35 -41.5 72.5t-13.5 68.5q0 61 24 105.5t70 51.5v59h87v-59q90 -20 94 -157h-87q-3 71 -47 71q-48 -1 -49 -70q-1 -23 11 -48
t34 -50q72 -84 107 -151.5t35 -127.5z" />
    <glyph glyph-name="percent" unicode="%" horiz-adv-x="475" 
d="M434 98h-36q1 25 -17.5 43t-44.5 18t-44.5 -17.5t-18.5 -43.5q0 -25 18.5 -43.5t44.5 -18.5t44.5 18.5t17.5 43.5h36q0 -40 -29 -69t-69 -29t-68.5 29t-28.5 69q0 41 28 69t69 28q39 0 68.5 -28.5t29.5 -68.5zM233 573h-36q1 25 -17.5 43t-44.5 18t-44.5 -17.5
t-18.5 -43.5q0 -25 18.5 -43.5t44.5 -18.5t44.5 18.5t17.5 43.5h36q0 -40 -29 -69t-69 -29t-68.5 29t-28.5 69q0 41 28 69t69 28q39 0 68.5 -28.5t29.5 -68.5zM451 670l-383 -670h-44l384 670h43z" />
    <glyph glyph-name="ampersand" unicode="&#x26;" horiz-adv-x="425" 
d="M392 0h-93l-14 35q-42 -47 -108 -47q-63 0 -103.5 54t-40.5 141q0 71 24.5 131t53.5 106l-15 41q-14 37 -16 82q1 68 31 103t77 35q46 0 77.5 -36t30.5 -105h-73q2 58 -32 57q-35 0 -35 -55q0 -44 32 -108l99 -210q9 60 8 110h77q-1 -66 -6.5 -117t-22.5 -108zM240 113
l-92 204q-13 -24 -22.5 -58t-11.5 -75q0 -43 18.5 -77t52.5 -36q31 -1 55 42z" />
    <glyph glyph-name="quotesingle" unicode="'" horiz-adv-x="244" 
d="M169 670l-21 -268h-52l-21 268h94z" />
    <glyph glyph-name="parenleft" unicode="(" horiz-adv-x="285" 
d="M244 -77h-87q-115 162 -115 385q0 218 115 380h87q-38 -61 -61 -106q-54 -115 -54 -277q0 -144 59 -279q16 -36 56 -103z" />
    <glyph glyph-name="parenright" unicode=")" horiz-adv-x="285" 
d="M42 -77q40 67 56 103q59 135 59 279q0 162 -54 277q-23 45 -61 106h87q115 -162 115 -380q0 -223 -115 -385h-87v0z" />
    <glyph glyph-name="asterisk" unicode="*" horiz-adv-x="455" 
d="M402 505l-112 -28l75 -89l-68 -52l-69 94l-68 -94l-68 54l73 89l-113 26l26 85l110 -38l-4 118h87l-5 -118l110 35z" />
    <glyph glyph-name="plus" unicode="+" horiz-adv-x="425" 
d="M400 287h-146v-146h-87v146h-143v87h143v143h87v-143h146v-87z" />
    <glyph glyph-name="comma" unicode="," horiz-adv-x="175" 
d="M137 38q0 -38 -17 -69.5t-58 -49.5v21q28 18 34 48h-9q-19 0 -34 15t-15 35t14.5 34.5t34.5 14.5q21 0 35.5 -14t14.5 -35z" />
    <glyph glyph-name="comma" unicode="&#x201a;" horiz-adv-x="175" 
d="M137 38q0 -38 -17 -69.5t-58 -49.5v21q28 18 34 48h-9q-19 0 -34 15t-15 35t14.5 34.5t34.5 14.5q21 0 35.5 -14t14.5 -35z" />
    <glyph glyph-name="hyphen" unicode="-" horiz-adv-x="255" 
d="M232 287h-209v87h209v-87z" />
    <glyph glyph-name="hyphen" unicode="&#xad;" horiz-adv-x="255" 
d="M232 287h-209v87h209v-87z" />
    <glyph glyph-name="period" unicode="." horiz-adv-x="175" 
d="M137 38q0 -20 -14.5 -35t-35.5 -15q-19 0 -34 15t-15 35t14.5 34.5t34.5 14.5q21 0 35.5 -14t14.5 -35z" />
    <glyph glyph-name="slash" unicode="/" horiz-adv-x="436" 
d="M436 670l-349 -670h-87l346 670h90z" />
    <glyph glyph-name="zero" unicode="0" 
d="M203 681q88 0 124 -82t36 -265q0 -176 -36 -261.5t-124 -85.5t-124 85.5t-36 261.5q0 183 36 265t124 82zM201 587q-30 0 -49 -35.5t-23 -214.5q4 -179 23 -214.5t49 -35.5q31 0 50 35.5t23 214.5q-4 179 -23 214.5t-50 35.5z" />
    <glyph glyph-name="one" unicode="1" horiz-adv-x="245" 
d="M192 0h-85v551h-54v76q51 6 77 43h62v-670z" />
    <glyph glyph-name="two" unicode="2" horiz-adv-x="355" 
d="M321 526q0 -38 -16.5 -74t-56.5 -101q-47 -70 -79 -144.5t-37 -119.5h189v-87h-288q0 104 39 207.5t88 169.5q38 54 56 90t18 59q-2 38 -16.5 54t-39.5 17q-23 0 -39 -13.5t-20 -46.5h-86q0 57 41.5 100.5t103.5 43.5q63 0 103 -43t40 -112z" />
    <glyph glyph-name="three" unicode="3" horiz-adv-x="355" 
d="M322 195q0 -103 -39 -155t-104 -52q-71 0 -108 45t-37 111h92q9 -67 53 -67q56 -2 56 118q0 115 -56 115h-29v87h29q44 0 47 95q-3 103 -47 103q-46 -2 -46 -58h-89q2 62 37 103t95 41q62 0 98 -51.5t36 -138.5q0 -86 -40 -132q52 -64 52 -164z" />
    <glyph glyph-name="four" unicode="4" 
d="M368 167h-35v-167h-85v167h-211v84l210 419h86v-420h35v-83zM248 250v230l-115 -230h115z" />
    <glyph glyph-name="five" unicode="5" horiz-adv-x="355" 
d="M325 257q0 -97 -59 -183t-141 -86q-45 -1 -93 20l42 85q22 -10 51 -10q33 1 71 48.5t42 124.5q-1 104 -53 109q-37 0 -52 -40h-85v345h262v-87h-175v-138q23 9 46 9q72 0 107.5 -54.5t36.5 -142.5z" />
    <glyph glyph-name="six" unicode="6" horiz-adv-x="355" 
d="M33 188q3 301 241 493l44 -71q-110 -99 -158 -216q8 2 17 3q68 -1 106 -56.5t38 -153.5q-1 -94 -42 -146.5t-102 -52.5q-66 0 -105 50.5t-39 149.5zM118 187q2 -113 60 -113q56 0 56 115t-59 114q-57 0 -57 -116z" />
    <glyph glyph-name="seven" unicode="7" horiz-adv-x="355" 
d="M321 584q-118 -274 -128 -584h-87q14 321 122 583h-195v87h288v-86z" />
    <glyph glyph-name="eight" unicode="8" horiz-adv-x="355" 
d="M322 195q0 -103 -39 -155t-104 -52q-71 0 -108.5 52t-37.5 155q0 100 51 161q-39 53 -39 135q0 87 35.5 138.5t95.5 51.5q62 0 98 -51.5t36 -138.5q0 -86 -40 -132q52 -64 52 -164zM226 492q0 104 -47 103q-51 1 -49 -103q2 -95 49 -95q44 0 47 95zM235 195
q0 115 -56 115q-59 0 -59 -115q0 -120 59 -120q56 0 56 120z" />
    <glyph glyph-name="nine" unicode="9" horiz-adv-x="355" 
d="M321 481q-3 -301 -241 -493l-44 71q110 99 158 216q-8 -2 -17 -3q-68 1 -106 56.5t-38 153.5q1 94 42 146.5t102 52.5q66 0 105 -50.5t39 -149.5zM236 482q-2 113 -60 113q-56 0 -56 -115t59 -114q57 0 57 116z" />
    <glyph glyph-name="colon" unicode=":" horiz-adv-x="175" 
d="M137 451q0 -21 -14.5 -35t-35.5 -14q-20 0 -34.5 14t-14.5 35t14.5 35.5t34.5 14.5q21 0 35.5 -14.5t14.5 -35.5zM137 38q0 -20 -14.5 -35t-35.5 -15q-19 0 -34 15t-15 35t14.5 34.5t34.5 14.5q21 0 35.5 -14t14.5 -35z" />
    <glyph glyph-name="semicolon" unicode=";" horiz-adv-x="175" 
d="M137 451q0 -21 -14.5 -35t-35.5 -14q-20 0 -34.5 14t-14.5 35t14.5 35.5t34.5 14.5q21 0 35.5 -14.5t14.5 -35.5zM137 38q0 -38 -17 -69.5t-58 -49.5v21q28 18 34 48h-9q-19 0 -34 15t-15 35t14.5 34.5t34.5 14.5q21 0 35.5 -14t14.5 -35z" />
    <glyph glyph-name="less" unicode="&#x3c;" horiz-adv-x="584" 
d="M55 313v82l474 200v-87l-376 -154l376 -156v-88z" />
    <glyph glyph-name="equal" unicode="=" horiz-adv-x="418" 
d="M397 374h-376v87h376v-87zM397 197h-376v87h376v-87z" />
    <glyph glyph-name="greater" unicode="&#x3e;" horiz-adv-x="584" 
d="M55 110v88l376 156l-376 154v87l474 -200v-82z" />
    <glyph glyph-name="question" unicode="?" horiz-adv-x="355" 
d="M322 526q-6 -41 -21 -79t-31 -87.5t-28 -100t-17 -89.5h-95q7 51 24.5 111t34.5 103.5l29.5 78t16.5 63.5q-1 39 -17.5 55t-38.5 16q-25 0 -41 -16t-18 -41h-87q3 63 43.5 102t102.5 39q63 0 103 -43t40 -112zM227 38q0 -20 -14.5 -35t-35.5 -15q-19 0 -34 15t-15 35
t14.5 34.5t34.5 14.5q21 0 35.5 -14t14.5 -35z" />
    <glyph glyph-name="at" unicode="@" horiz-adv-x="705" 
d="M500 245q-2 -30 25 -30q32 0 62 52.5t30 111.5q0 103 -68 167t-177 64q-117 0 -196.5 -81.5t-79.5 -200.5q0 -118 74.5 -195t201.5 -77q107 0 191 36l19 -71q-87 -35 -207 -35q-157 0 -255.5 91t-98.5 252q0 148 100 250t244 102q140 0 229 -84t89 -214
q0 -92 -48.5 -162.5t-113.5 -70.5q-58 -1 -85 45q-42 -25 -98 -25q-66 0 -100.5 32t-34.5 82q0 52 38 87t97 35q40 0 76 -11q2 44 -59 44q-47 0 -91 -23l-35 70q67 35 126 35q145 0 145 -140v-136zM414 268v48q-41 11 -76 11q-21 0 -36 -11t-15 -27t17.5 -27.5t41.5 -11.5
q36 0 68 18z" />
    <glyph glyph-name="A" unicode="A" 
d="M239 279l-37 217l-36 -217h73zM383 0h-89l-38 179h-110l-38 -179h-87l139 670h84z" />
    <glyph glyph-name="B" unicode="B" horiz-adv-x="355" 
d="M322 195q0 -103 -42 -149t-107 -46h-139v670h135q64 0 101.5 -46t37.5 -133q0 -86 -42 -135q56 -61 56 -161zM226 495q0 37 -14 60.5t-39 27.5h-56v-183h55q28 3 41 30t13 65zM236 195q2 46 -16.5 78.5t-47.5 32.5h-55v-219h57q26 2 43.5 30.5t18.5 77.5z" />
    <glyph glyph-name="C" unicode="C" horiz-adv-x="385" 
d="M199 597q-27 1 -44.5 -32t-23.5 -232q6 -186 25 -219t48 -31q44 0 50 65h83q0 -77 -40.5 -118.5t-94.5 -41.5q-84 0 -118 77.5t-36 268.5q2 205 40 276t114 71q50 0 92.5 -39.5t42.5 -111.5h-83q-2 66 -55 67z" />
    <glyph glyph-name="D" unicode="D" horiz-adv-x="385" 
d="M337 335q0 -165 -36.5 -250t-114.5 -85h-138v670h138q78 0 114.5 -75.5t36.5 -259.5zM253 335q-2 168 -23 208.5t-55 39.5h-43v-496h43q33 -1 55 50t23 198z" />
    <glyph glyph-name="E" unicode="E" horiz-adv-x="325" 
d="M291 0h-256v670h247v-87h-163v-172h109v-89h-109v-235h172v-87z" />
    <glyph glyph-name="F" unicode="F" horiz-adv-x="325" 
d="M291 583h-172v-172h99v-89h-99v-322h-84v670h256v-87z" />
    <glyph glyph-name="G" unicode="G" horiz-adv-x="385" 
d="M199 597q-27 1 -44.5 -32t-23.5 -232q6 -186 25 -219t48 -31q44 0 50 65v89h-56v89h139v-178q0 -77 -40.5 -118.5t-94.5 -41.5q-84 0 -118 77.5t-36 268.5q2 205 40 276t114 71q50 0 92.5 -39.5t42.5 -111.5h-83q-2 66 -55 67z" />
    <glyph glyph-name="H" unicode="H" horiz-adv-x="395" 
d="M342 0h-85v313h-120v-313h-84v670h84v-271h120v271h85v-670z" />
    <glyph glyph-name="I" unicode="I" horiz-adv-x="225" 
d="M155 0h-84v670h84v-670z" />
    <glyph glyph-name="J" unicode="J" horiz-adv-x="395" 
d="M344 164q0 -65 -21 -105q-38 -71 -122 -71q-121 1 -149 131l90 17q13 -64 59 -61q58 0 58 78v517h85v-506z" />
    <glyph glyph-name="K" unicode="K" horiz-adv-x="395" 
d="M347 0h-91l-89 332l-34 -80v-252h-84v670h84v-221l106 221h93l-104 -227z" />
    <glyph glyph-name="L" unicode="L" horiz-adv-x="325" 
d="M291 0h-256v670h84v-583h172v-87z" />
    <glyph glyph-name="M" unicode="M" horiz-adv-x="415" 
d="M373 0h-84v397l-80 -251l-83 251v-397h-84v670h73l94 -273l90 273h74v-670z" />
    <glyph glyph-name="N" unicode="N" 
d="M347 0h-78l-127 397v-397h-84v670h84l120 -365v365h85v-670z" />
    <glyph glyph-name="O" unicode="O" 
d="M203 681q88 0 124 -82t36 -265q0 -176 -36 -261.5t-124 -85.5t-124 85.5t-36 261.5q0 183 36 265t124 82zM201 587q-30 0 -49 -35.5t-23 -214.5q4 -179 23 -214.5t49 -35.5q31 0 50 35.5t23 214.5q-4 179 -23 214.5t-50 35.5z" />
    <glyph glyph-name="P" unicode="P" horiz-adv-x="395" 
d="M342 482q0 -74 -45 -122t-110 -47h-50v-313h-84v670h131q67 0 112.5 -48.5t45.5 -139.5zM255 486q0 50 -20.5 73.5t-54.5 23.5h-43v-181h50q32 3 50 26t18 58z" />
    <glyph glyph-name="Q" unicode="Q" 
d="M202 681q88 0 124 -82t36 -265q-1 -210 -39 -278l35 -69l-80 -40l-25 51q-25 -10 -51 -11q-88 0 -124 85.5t-36 261.5q0 183 36 265t124 82zM200 587q-30 0 -49 -35.5t-23 -214.5q4 -179 23 -214.5t49 -35.5q8 1 13 4l-39 77l70 35l21 -42q4 15 8 176q-4 179 -23 214.5
t-50 35.5z" />
    <glyph glyph-name="R" unicode="R" horiz-adv-x="395" 
d="M342 482q-1 -122 -78 -163l76 -319h-86l-70 313h-47v-313h-84v670h131q67 0 113 -49t45 -139zM255 484q0 51 -20.5 75t-54.5 24h-43v-184h50q32 3 50 26t18 59z" />
    <glyph glyph-name="S" unicode="S" horiz-adv-x="355" 
d="M325 148q0 -66 -34.5 -113t-110.5 -47q-72 0 -109.5 50t-40.5 129h89q2 -89 61 -92q53 4 54 73q2 44 -46.5 116t-86.5 119q-28 35 -41.5 72.5t-13.5 68.5q0 61 35.5 109t99.5 48q55 0 97 -43t43 -114h-87q-3 71 -50 70q-46 -1 -46 -69q-1 -23 11 -48t34 -50
q72 -84 107 -151.5t35 -127.5z" />
    <glyph glyph-name="T" unicode="T" horiz-adv-x="325" 
d="M290 583h-88v-583h-85v583h-83v87h256v-87z" />
    <glyph glyph-name="U" unicode="U" 
d="M347 164q0 -65 -21 -105q-38 -71 -122 -71q-100 0 -134 92q-12 32 -12 84v506h84v-517q0 -78 62 -78q58 0 58 78v517h85v-506z" />
    <glyph glyph-name="V" unicode="V" horiz-adv-x="355" 
d="M334 670l-120 -670h-73l-120 670h87l71 -381l68 381h87z" />
    <glyph glyph-name="W" unicode="W" horiz-adv-x="465" 
d="M445 670l-77 -670h-73l-63 376l-61 -376h-73l-78 670h87l35 -310l54 310h73l54 -310l36 310h86z" />
    <glyph glyph-name="X" unicode="X" horiz-adv-x="375" 
d="M345 0h-92l-66 202l-65 -202h-92l113 343l-108 327h94l58 -186l61 186h92l-108 -327z" />
    <glyph glyph-name="Y" unicode="Y" 
d="M382 670l-137 -367v-303h-87v303l-136 367h92l89 -235l87 235h92z" />
    <glyph glyph-name="Z" unicode="Z" horiz-adv-x="355" 
d="M322 0h-289v94l195 489h-179v87h273v-87l-195 -489h195v-94z" />
    <glyph glyph-name="bracketleft" unicode="[" horiz-adv-x="275" 
d="M38 692h198v-73h-128v-709h128v-73h-198v855z" />
    <glyph glyph-name="backslash" unicode="\" horiz-adv-x="436" 
d="M90 670l346 -670h-87l-349 670h90z" />
    <glyph glyph-name="bracketright" unicode="]" horiz-adv-x="275" 
d="M236 -163h-198v73h128v709h-128v73h198v-855z" />
    <glyph glyph-name="asciicircum" unicode="^" horiz-adv-x="475" 
d="M120 337h-91l173 391h71l173 -391h-89l-120 291z" />
    <glyph glyph-name="underscore" unicode="_" horiz-adv-x="556" 
d="M-15 -199v64h582v-64h-582z" />
    <glyph glyph-name="grave" unicode="`" horiz-adv-x="195" 
d="M16 670h111l53 -107h-57z" />
    <glyph glyph-name="a" unicode="a" horiz-adv-x="315" 
d="M281 0h-78v14q-19 -26 -55 -26q-113 3 -113 162q0 176 115 182q22 0 46 -10v35q0 52 -37 52q-41 2 -65 -35l-55 55q39 66 117 72q125 0 125 -147v-354zM196 112v118q-16 11 -41 11q-38 -3 -38 -89q1 -81 46 -79q28 1 33 39z" />
    <glyph glyph-name="b" unicode="b" horiz-adv-x="334" 
d="M301 249q0 -261 -113 -261q-31 0 -52 31v-19h-82v630l85 51v-195q28 13 51 13q111 0 111 -250zM216 249q0 75 -2 92q-7 70 -40 70q-35 0 -35 -61v-193q0 -77 35 -77q26 0 35 43q7 34 7 126z" />
    <glyph glyph-name="c" unicode="c" horiz-adv-x="315" 
d="M211 361q-8 49 -44 49q-24 1 -34.5 -21.5t-13.5 -141.5q3 -125 15.5 -146.5t37.5 -20.5q29 3 37 43l69 -34q-21 -97 -105 -100q-66 0 -101 54.5t-35 201.5q0 151 32 204t98 53q90 -6 111 -107z" />
    <glyph glyph-name="d" unicode="d" horiz-adv-x="334" 
d="M280 0h-83v19q-20 -31 -51 -31q-113 0 -113 261q0 104 22 168q39 115 140 69v144l85 51v-681zM195 157v193q0 61 -33 61t-40 -68q-2 -16 -2 -94q0 -94 6 -126q8 -43 36 -43q33 0 33 77z" />
    <glyph glyph-name="e" unicode="e" horiz-adv-x="315" 
d="M280 195h-162q3 -117 51 -118q28 0 38 40l70 -35q-23 -93 -105 -94q-66 0 -101 54.5t-35 199.5q0 110 29 184.5t95 74.5q67 0 93 -72.5t27 -233.5zM200 282q-1 76 -11 101.5t-29 24.5q-23 1 -32.5 -27t-9.5 -99h82z" />
    <glyph glyph-name="f" unicode="f" horiz-adv-x="235" 
d="M71 0v411h-52v90h52v79q-1 46 24 73.5t59 27.5q35 0 62 -21v-85q-14 13 -31 13q-28 -2 -27 -34v-55h58v-88h-58v-411h-87z" />
    <glyph glyph-name="g" unicode="g" horiz-adv-x="325" 
d="M284 -34q-9 -147 -122 -208l-30 80q67 44 68 129v37q-13 -17 -41 -16q-119 0 -119 249q0 261 124 264q30 0 46 -21v18h74v-532zM202 107v266q-5 36 -35 36q-45 0 -45 -172q1 -166 47 -164q30 0 33 34z" />
    <glyph glyph-name="h" unicode="h" horiz-adv-x="325" 
d="M44 0v639l84 42v-213q24 33 61 33q42 -1 67 -37t25 -77v-387h-85v365q-4 36 -36 36q-31 -4 -32 -38v-363h-84z" />
    <glyph glyph-name="i" unicode="i" horiz-adv-x="165" 
d="M125 603q0 -19 -12 -31q-13 -12 -31 -12t-30 12q-12 13 -12 31q0 19 12 30q12 12 30 12t30 -11q13 -12 13 -31zM125 0h-85v489h85v-489z" />
    <glyph glyph-name="j" unicode="j" horiz-adv-x="165" 
d="M125 0q-12 -161 -96 -242l-52 63q58 72 63 179v489h85v-489zM125 603q0 -19 -12 -31q-13 -12 -31 -12t-30 12q-12 13 -12 31q0 19 12 30q12 12 30 12t30 -11q13 -12 13 -31z" />
    <glyph glyph-name="k" unicode="k" horiz-adv-x="335" 
d="M303 0h-87l-62 251l-38 -76v-175h-83v639l85 42v-354l81 162h90l-75 -151z" />
    <glyph glyph-name="l" unicode="l" horiz-adv-x="165" 
d="M125 0h-85v638l85 43v-681z" />
    <glyph glyph-name="m" unicode="m" horiz-adv-x="485" 
d="M439 0h-86v363q0 51 -31 51q-36 0 -35 -51v-363h-87v364q1 47 -33 47q-36 1 -35 -48v-363h-85v498h85v-35q13 38 58 38q42 0 64 -45q18 45 75 45q50 0 80 -36t30 -102v-363z" />
    <glyph glyph-name="n" unicode="n" horiz-adv-x="325" 
d="M44 0v498h84v-30q24 33 61 33q42 -1 67 -37t25 -77v-387h-85v365q-4 36 -36 36q-31 -4 -32 -38v-363h-84z" />
    <glyph glyph-name="o" unicode="o" horiz-adv-x="315" 
d="M281 247q1 -149 -30 -204t-89 -55q-66 0 -98 62.5t-30 193.5q0 125 26.5 191t100.5 66q67 0 93.5 -67t26.5 -187zM204 247q-6 116 -12.5 139.5t-30.5 24.5q-24 -1 -33 -24t-13 -142q2 -97 10 -131t36 -36q27 1 34.5 36t8.5 133z" />
    <glyph glyph-name="p" unicode="p" horiz-adv-x="325" 
d="M114 498v-18q16 21 46 21q124 -3 124 -264q0 -249 -119 -249q-28 -1 -41 16v-204l-84 -42v740h74zM122 107q3 -34 33 -34q46 -2 47 164q0 172 -45 172q-30 0 -35 -36v-266z" />
    <glyph glyph-name="q" unicode="q" horiz-adv-x="325" 
d="M284 498v-698l-84 -42v246q-13 -17 -41 -16q-119 0 -119 249q0 261 124 264q30 0 46 -21v18h74zM202 107v266q-5 36 -35 36q-45 0 -45 -172q1 -166 47 -164q30 0 33 34z" />
    <glyph glyph-name="r" unicode="r" horiz-adv-x="245" 
d="M242 480l-15 -102q-15 26 -40 26q-47 0 -48 -83v-321h-85v498h85v-24q22 27 53 27q28 0 50 -21z" />
    <glyph glyph-name="s" unicode="s" horiz-adv-x="275" 
d="M254 129q-1 -74 -34 -107.5t-77 -33.5q-45 0 -75 31t-47 83l75 37q23 -64 49 -60q26 3 27 36q1 30 -17.5 62t-41.5 58q-28 30 -52 70.5t-22 81.5q-1 42 27 78t72 36q87 -2 111 -90l-64 -32q-17 44 -42 44q-25 -2 -25 -36q4 -28 21.5 -51.5t45.5 -54.5q23 -22 45.5 -63.5
t23.5 -88.5z" />
    <glyph glyph-name="t" unicode="t" horiz-adv-x="235" 
d="M214 90l-21 -90q-15 -12 -35 -12q-41 0 -64.5 30t-24.5 78v315h-52v90h52v137l87 43v-180h58v-90h-58v-305q2 -32 24 -31q17 0 34 15z" />
    <glyph glyph-name="u" unicode="u" horiz-adv-x="325" 
d="M281 489v-489h-84v21q-24 -33 -61 -33q-42 1 -67 37t-25 77v387h85v-365q4 -36 36 -36q31 4 32 38v363h84z" />
    <glyph glyph-name="v" unicode="v" horiz-adv-x="315" 
d="M303 489l-103 -489h-87l-101 489h87l56 -334l64 334h84z" />
    <glyph glyph-name="w" unicode="w" 
d="M388 489l-77 -489h-72l-35 257l-39 -257h-73l-75 489h76l37 -232l35 232h73l41 -232l34 232h75z" />
    <glyph glyph-name="x" unicode="x" horiz-adv-x="315" 
d="M311 0h-87l-68 174l-66 -174h-87l106 278l-85 211h84l48 -127l45 127h82l-81 -211z" />
    <glyph glyph-name="y" unicode="y" horiz-adv-x="335" 
d="M322 491l-160 -733h-84l54 242l-118 491h87l73 -303l63 303h85z" />
    <glyph glyph-name="z" unicode="z" horiz-adv-x="275" 
d="M257 420l-142 -333h142v-87h-240v66l138 338h-126v85h228v-69z" />
    <glyph glyph-name="braceleft" unicode="{" horiz-adv-x="335" 
d="M26 299q76 2 93 73q7 34 8 115q0 37 3 108q11 106 91 128q17 5 60 5h28v-77h-16q-54 0 -70 -23q-14 -19 -14 -77q0 -129 -5 -161q-8 -51 -29.5 -80t-67.5 -51q65 -27 87 -90q15 -44 15 -130q0 -96 2 -113q5 -37 25 -50q17 -10 57 -10h16v-76h-28q-47 0 -69 7
q-66 24 -79 100q-3 24 -3 102t-6 116q-9 61 -37 84q-24 19 -61 20v80z" />
    <glyph glyph-name="bar" unicode="|" horiz-adv-x="205" 
d="M77 -210v938h50v-938h-50z" />
    <glyph glyph-name="braceright" unicode="}" horiz-adv-x="335" 
d="M309 219q-37 -1 -61 -20q-28 -23 -37 -84q-6 -38 -6 -116t-3 -102q-13 -76 -79 -100q-22 -7 -69 -7h-28v76h16q40 0 57 10q20 13 25 50q2 17 2 113q0 86 15 130q22 63 87 90q-46 22 -67.5 51t-29.5 80q-5 32 -5 161q0 58 -14 77q-16 23 -70 23h-16v77h28q43 0 60 -5
q80 -22 91 -128q3 -71 3 -108q1 -81 8 -115q17 -71 93 -73v-80z" />
    <glyph glyph-name="asciitilde" unicode="~" horiz-adv-x="584" 
d="M42 272v100q52 59 136 59q53 0 154 -43q54 -23 84 -23q65 0 126 67v-103q-59 -56 -135 -56q-52 0 -141 40q-58 25 -96 25q-59 0 -128 -66z" />
    <glyph glyph-name="Euro" unicode="&#x20ac;" horiz-adv-x="385" 
d="M273 366h-238v50h238v-50zM273 256h-238v50h238v-50zM211 598q-27 1 -44.5 -32t-23.5 -232q6 -186 25 -219t48 -31q44 0 50 65h83q0 -77 -40.5 -118.5t-94.5 -41.5q-84 0 -118 77.5t-36 268.5q2 205 40 276t114 71q50 0 92.5 -39.5t42.5 -111.5h-83q-2 66 -55 67z" />
    <glyph glyph-name="florin" unicode="&#x192;" horiz-adv-x="235" 
d="M71 -242v653h-52v90h52v79q-1 46 24 73.5t59 27.5q35 0 62 -21v-85q-14 13 -31 13q-28 -2 -27 -34v-55h58v-88h-58v-610z" />
    <glyph glyph-name="quotedblbase" unicode="&#x201e;" horiz-adv-x="325" 
d="M284 38q0 -38 -17 -69.5t-58 -49.5v21q28 18 34 48h-9q-19 0 -34 15t-15 35t14.5 34.5t34.5 14.5q21 0 35.5 -14t14.5 -35zM140 38q0 -38 -17 -69.5t-58 -49.5v21q28 18 34 48h-9q-19 0 -34 15t-15 35t14.5 34.5t34.5 14.5q21 0 35.5 -14t14.5 -35z" />
    <glyph glyph-name="ellipsis" unicode="&#x2026;" horiz-adv-x="625" 
d="M362 38q0 -20 -14.5 -35t-35.5 -15q-19 0 -34 15t-15 35t14.5 34.5t34.5 14.5q21 0 35.5 -14t14.5 -35zM581 38q0 -20 -14.5 -35t-35.5 -15q-19 0 -34 15t-15 35t14.5 34.5t34.5 14.5q21 0 35.5 -14t14.5 -35zM142 38q0 -20 -14.5 -35t-35.5 -15q-19 0 -34 15t-15 35
t14.5 34.5t34.5 14.5q21 0 35.5 -14t14.5 -35z" />
    <glyph glyph-name="dagger" unicode="&#x2020;" horiz-adv-x="455" 
d="M245 445v-553h-39v553h-168v45h168v201h39v-201h171v-45h-171z" />
    <glyph glyph-name="daggerdbl" unicode="&#x2021;" horiz-adv-x="455" 
d="M245 445v-303h171v-46h-171v-204h-39v204h-168v45h168v304h-168v45h168v201h39v-201h171v-45h-171z" />
    <glyph glyph-name="circumflex" unicode="&#x2c6;" horiz-adv-x="275" 
d="M23 561l67 109h90l71 -109h-57l-59 59l-59 -59h-53z" />
    <glyph glyph-name="perthousand" unicode="&#x2030;" horiz-adv-x="705" 
d="M675 98h-36q1 25 -17.5 43t-44.5 18t-44.5 -17.5t-18.5 -43.5q0 -25 18.5 -43.5t44.5 -18.5t44.5 18.5t17.5 43.5h36q0 -40 -29 -69t-69 -29t-68.5 29t-28.5 69q0 41 28 69t69 28q39 0 68.5 -28.5t29.5 -68.5zM238 573h-36q1 25 -17.5 43t-44.5 18t-44.5 -17.5
t-18.5 -43.5q0 -25 18.5 -43.5t44.5 -18.5t44.5 18.5t17.5 43.5h36q0 -40 -29 -69t-69 -29t-68.5 29t-28.5 69q0 41 28 69t69 28q39 0 68.5 -28.5t29.5 -68.5zM456 670l-383 -670h-44l384 670h43zM439 98h-36q1 25 -17.5 43t-44.5 18t-44.5 -17.5t-18.5 -43.5
q0 -25 18.5 -43.5t44.5 -18.5t44.5 18.5t17.5 43.5h36q0 -40 -29 -69t-69 -29t-68.5 29t-28.5 69q0 41 28 69t69 28q39 0 68.5 -28.5t29.5 -68.5z" />
    <glyph glyph-name="Scaron" unicode="&#x160;" horiz-adv-x="355" 
d="M117 808l59 -59l59 59h57l-71 -109h-90l-67 109h53zM325 148q0 -66 -34.5 -113t-110.5 -47q-72 0 -109.5 50t-40.5 129h89q2 -89 61 -92q53 4 54 73q2 44 -46.5 116t-86.5 119q-28 35 -41.5 72.5t-13.5 68.5q0 61 35.5 109t99.5 48q55 0 97 -43t43 -114h-87q-3 71 -50 70
q-46 -1 -46 -69q-1 -23 11 -48t34 -50q72 -84 107 -151.5t35 -127.5z" />
    <glyph glyph-name="guilsinglleft" unicode="&#x2039;" horiz-adv-x="275" 
d="M255 501l-116 -205l116 -205h-117l-117 205l117 205h117z" />
    <glyph glyph-name="OE" unicode="&#x152;" horiz-adv-x="545" 
d="M186 681q88 0 124 -82t36 -265q0 -176 -36 -261.5t-124 -85.5t-124 85.5t-36 261.5q0 183 36 265t124 82zM186 587q-30 0 -49 -35.5t-23 -214.5q4 -179 23 -214.5t49 -35.5q31 0 50 35.5t23 214.5q-4 179 -23 214.5t-50 35.5zM518 0h-256v670h247v-87h-163v-172h109v-89
h-109v-235h172v-87z" />
    <glyph glyph-name="Zcaron" unicode="&#x17d;" horiz-adv-x="355" 
d="M322 0h-289v94l195 489h-179v87h273v-87l-195 -489h195v-94zM117 808l59 -59l59 59h57l-71 -109h-90l-67 109h53z" />
    <glyph glyph-name="quoteleft" unicode="&#x2018;" horiz-adv-x="175" 
d="M38 551q0 38 17 69.5t58 49.5v-21q-28 -18 -34 -48h9q19 0 34 -15t15 -35t-14.5 -34.5t-34.5 -14.5q-21 0 -35.5 14t-14.5 35z" />
    <glyph glyph-name="quoteright" unicode="&#x2019;" horiz-adv-x="175" 
d="M137 621q0 -38 -17 -69.5t-58 -49.5v21q28 18 34 48h-9q-19 0 -34 15t-15 35t14.5 34.5t34.5 14.5q21 0 35.5 -14t14.5 -35z" />
    <glyph glyph-name="quotedblleft" unicode="&#x201c;" horiz-adv-x="325" 
d="M41 551q0 38 17 69.5t58 49.5v-21q-28 -18 -34 -48h9q19 0 34 -15t15 -35t-14.5 -34.5t-34.5 -14.5q-21 0 -35.5 14t-14.5 35zM185 551q0 38 17 69.5t58 49.5v-21q-28 -18 -34 -48h9q19 0 34 -15t15 -35t-14.5 -34.5t-34.5 -14.5q-21 0 -35.5 14t-14.5 35z" />
    <glyph glyph-name="quotedblright" unicode="&#x201d;" horiz-adv-x="325" 
d="M284 621q0 -38 -17 -69.5t-58 -49.5v21q28 18 34 48h-9q-19 0 -34 15t-15 35t14.5 34.5t34.5 14.5q21 0 35.5 -14t14.5 -35zM140 621q0 -38 -17 -69.5t-58 -49.5v21q28 18 34 48h-9q-19 0 -34 15t-15 35t14.5 34.5t34.5 14.5q21 0 35.5 -14t14.5 -35z" />
    <glyph glyph-name="bullet" unicode="&#x2022;" horiz-adv-x="625" 
d="M565 303q0 -107 -73.5 -180t-179.5 -73q-105 0 -178.5 74t-73.5 179q0 106 73 179t179 73q105 0 179 -73t74 -179z" />
    <glyph glyph-name="endash" unicode="&#x2013;" horiz-adv-x="505" 
d="M485 287h-464v87h464v-87z" />
    <glyph glyph-name="emdash" unicode="&#x2014;" horiz-adv-x="1005" 
d="M987 287h-968v87h968v-87z" />
    <glyph glyph-name="tilde" unicode="&#x2dc;" horiz-adv-x="325" 
d="M290 670q-11 -49 -32 -72t-53 -23q-8 0 -15 1t-15 4l-36 10q-9 2 -15 3.5t-11 1.5q-13 0 -21 -7t-14 -23h-43q7 48 28 70.5t52 22.5q8 -1 17 -2t19 -4l37 -10q4 -2 9.5 -3t12.5 -1q13 0 21 8.5t13 23.5h46z" />
    <glyph glyph-name="trademark" unicode="&#x2122;" horiz-adv-x="735" 
d="M292 602h-94v-277h-67v277h-94v68h255v-68zM697 325h-72v187l-96 -187l-99 187v-187h-71v345h71l99 -189l96 189h72v-345z" />
    <glyph glyph-name="scaron" unicode="&#x161;" horiz-adv-x="275" 
d="M76 640l59 -59l59 59h57l-71 -109h-90l-67 109h53zM254 129q-1 -74 -34 -107.5t-77 -33.5q-45 0 -75 31t-47 83l75 37q23 -64 49 -60q26 3 27 36q1 30 -17.5 62t-41.5 58q-28 30 -52 70.5t-22 81.5q-1 42 27 78t72 36q87 -2 111 -90l-64 -32q-17 44 -42 44
q-25 -2 -25 -36q4 -28 21.5 -51.5t45.5 -54.5q23 -22 45.5 -63.5t23.5 -88.5z" />
    <glyph glyph-name="guilsinglright" unicode="&#x203a;" horiz-adv-x="275" 
d="M138 501l117 -205l-117 -205h-117l116 205l-116 205h117z" />
    <glyph glyph-name="oe" unicode="&#x153;" horiz-adv-x="475" 
d="M446 195h-162q3 -117 51 -118q28 0 38 40l70 -35q-23 -93 -105 -94q-66 0 -101 54.5t-35 199.5q0 110 29 184.5t95 74.5q67 0 93 -72.5t27 -233.5zM366 282q-1 76 -11 101.5t-29 24.5q-23 1 -32.5 -27t-9.5 -99h82zM279 247q1 -149 -30 -204t-89 -55q-66 0 -98 62.5
t-30 193.5q0 125 26.5 191t100.5 66q67 0 93.5 -67t26.5 -187zM202 247q-6 116 -12.5 139.5t-30.5 24.5q-24 -1 -33 -24t-13 -142q2 -97 10 -131t36 -36q27 1 34.5 36t8.5 133z" />
    <glyph glyph-name="zcaron" unicode="&#x17e;" horiz-adv-x="275" 
d="M257 420l-142 -333h142v-87h-240v66l138 338h-126v85h228v-69zM76 640l59 -59l59 59h57l-71 -109h-90l-67 109h53z" />
    <glyph glyph-name="Ydieresis" unicode="&#x178;" 
d="M242 756q0 19 13.5 32t31.5 13q19 0 32 -12.5t13 -32.5q0 -19 -13 -32t-32 -13q-18 0 -31.5 13t-13.5 32zM72 756q0 19 13.5 32t31.5 13q19 0 32 -12.5t13 -32.5q0 -19 -13 -32t-32 -13q-18 0 -31.5 13t-13.5 32zM382 670l-137 -367v-303h-87v303l-136 367h92l89 -235
l87 235h92z" />
    <glyph glyph-name="exclamdown" unicode="&#xa1;" horiz-adv-x="175" 
d="M39 -12v252l23 253h52l22 -254v-251h-97zM137 620q0 -21 -14.5 -35t-35.5 -14q-20 0 -34.5 14.5t-14.5 34.5t15 35t34 15q21 0 35.5 -15t14.5 -35z" />
    <glyph glyph-name="cent.001" unicode="&#xa2;" horiz-adv-x="285" 
d="M128 0v670h36v-670h-36zM196 446q-8 49 -44 49q-24 1 -34.5 -21.5t-13.5 -141.5q3 -125 15.5 -146.5t37.5 -20.5q29 3 37 43l69 -34q-21 -97 -105 -100q-66 0 -101 54.5t-35 201.5q0 151 32 204t98 53q90 -6 111 -107z" />
    <glyph glyph-name="sterling" unicode="&#xa3;" horiz-adv-x="355" 
d="M61 407h28v116q-1 58 28 102.5t87 44.5q55 0 87 -41t32 -101h-82q2 21 -5 35.5t-24 14.5t-24.5 -14.5t-7.5 -40.5v-116h62v-74h-63v-77q-1 -118 -31 -169h175v-87h-290v87h15q44 58 46 167v79h-33v74z" />
    <glyph glyph-name="currency" unicode="&#xa4;" horiz-adv-x="555" 
d="M105 469l-68 67l56 58l68 -68q52 35 116 35t116 -35l67 68l57 -58l-68 -67q35 -53 35 -115q0 -61 -35 -115l68 -66l-57 -58l-67 68q-52 -36 -116 -36t-116 36l-68 -68l-56 58l68 66q-35 54 -35 115q0 62 35 115zM150 354q0 -52 37 -89t89 -37q53 0 90 37t37 89
q0 53 -37 90t-90 37q-52 0 -89 -37t-37 -90z" />
    <glyph glyph-name="yen" unicode="&#xa5;" 
d="M382 215h-360v87h360v-87zM382 670l-137 -367v-303h-87v303l-136 367h92l89 -235l87 235h92z" />
    <glyph glyph-name="brokenbar" unicode="&#xa6;" horiz-adv-x="205" 
d="M128 728v-386h-50v386h50zM128 176v-386h-50v386h50z" />
    <glyph glyph-name="section" unicode="&#xa7;" horiz-adv-x="275" 
d="M254 318q-3 -87 -69 -110q23 -22 45.5 -63.5t23.5 -88.5q-1 -74 -34 -107.5t-77 -33.5q-45 0 -75 31t-47 83l75 37q23 -64 49 -60q26 3 27 36q1 30 -17.5 62t-41.5 58q-28 30 -53 70.5t-26 84.5q0 86 65 114q-14 14 -38 54.5t-22 81.5q-1 42 27 78t72 36q87 -2 111 -90
l-64 -32q-17 44 -42 44q-25 -2 -25 -36q4 -28 21.5 -51.5t45.5 -54.5q23 -22 46.5 -60t22.5 -83zM139 375q-30 -19 -28 -55q2 -24 34 -53q31 13 31 46q1 23 -37 62z" />
    <glyph glyph-name="dieresis" unicode="&#xa8;" horiz-adv-x="325" 
d="M203 625q0 19 13.5 32t31.5 13q19 0 32 -12.5t13 -32.5q0 -19 -13 -32t-32 -13q-18 0 -31.5 13t-13.5 32zM33 625q0 19 13.5 32t31.5 13q19 0 32 -12.5t13 -32.5q0 -19 -13 -32t-32 -13q-18 0 -31.5 13t-13.5 32z" />
    <glyph glyph-name="exclamdown.001" unicode="&#xa9;" horiz-adv-x="745" 
d="M372 681q91 0 172.5 -46t124.5 -125q47 -82 47 -173t-46.5 -172.5t-127.5 -126t-170 -44.5q-92 0 -173 46.5t-126 127t-45 169.5q0 93 47.5 175t129 125.5t167.5 43.5zM372 625q-76 0 -143 -39t-105 -105q-38 -69 -38 -144q0 -77 39 -144t106.5 -105t140.5 -38
q76 0 143.5 39.5t105 106.5t37.5 141q0 78 -39.5 146t-107.5 105t-139 37zM482 282l56 -17q-14 -59 -58.5 -92t-107.5 -33q-85 0 -134 56q-46 53 -46 140q0 125 88 172q41 22 96 22q124 0 155 -107l-54 -13q-28 70 -103 70q-59 0 -91 -44q-29 -39 -29 -101q0 -61 27 -99
q30 -42 89 -42q41 0 72 24t40 64z" />
    <glyph glyph-name="cent" unicode="&#xaa;" horiz-adv-x="235" 
d="M198 354h-51v9q-12 -17 -36 -17q-74 2 -74 106q0 115 75 119q13 0 30 -6v22q0 34 -24 34q-27 2 -44 -22l-35 35q25 44 76 47q83 0 83 -95v-232zM142 427v78q-10 7 -27 7q-26 -2 -26 -58q2 -53 31 -52q19 1 22 25z" />
    <glyph glyph-name="guillemotleft" unicode="&#xab;" horiz-adv-x="515" 
d="M261 501l-116 -205l116 -205h-117l-117 205l117 205h117zM488 501l-116 -205l116 -205h-117l-117 205l117 205h117z" />
    <glyph glyph-name="logicalnot" unicode="&#xac;" horiz-adv-x="505" 
d="M398 159v128h-377v87h464v-215h-87z" />
    <glyph glyph-name="registered" unicode="&#xae;" horiz-adv-x="705" 
d="M353 681q89 0 167.5 -44.5t120.5 -121.5q44 -80 44 -167q0 -89 -44.5 -168t-122.5 -122t-165 -43q-90 0 -168 45t-121.5 123.5t-43.5 164.5q0 90 46 169t124.5 121.5t162.5 42.5zM353 620q-72 0 -135.5 -36.5t-99.5 -99.5q-35 -67 -35 -137q0 -74 36.5 -138.5t100.5 -100
t133 -35.5q73 0 137 37t100.5 101.5t36.5 135.5q0 73 -38.5 138.5t-102.5 100t-133 34.5zM207 164v358h123q51 0 75 -5q41 -9 62 -39q16 -25 16 -53q0 -42 -26 -71q-22 -29 -66 -34l117 -156h-64l-119 152h-61v-152h-57zM264 366h71q39 -1 56 8q33 12 31 46q0 34 -34 48
q-15 6 -58 6h-66v-108z" />
    <glyph glyph-name="macron" unicode="&#xaf;" horiz-adv-x="325" 
d="M31 649h263v-45h-263v45z" />
    <glyph glyph-name="degree" unicode="&#xb0;" horiz-adv-x="375" 
d="M52 535q0 56 38 95q39 40 95 40q58 0 98 -39t40 -96t-40 -96q-41 -40 -98 -40q-56 0 -94 39q-39 40 -39 97zM103 535q0 -35 24 -59q25 -24 58 -24q35 0 59 24q25 25 25 59t-24 58q-25 24 -60 24q-33 0 -57 -24q-25 -24 -25 -58z" />
    <glyph glyph-name="plusminus" unicode="&#xb1;" horiz-adv-x="425" 
d="M401 41h-376v87h376v-87zM401 320h-146v-146h-87v146h-143v87h143v143h87v-143h146v-87z" />
    <glyph glyph-name="twosuperior" unicode="&#xb2;" horiz-adv-x="235" 
d="M200 591q0 -23 -11 -44t-33 -59q-25 -41 -45 -84.5t-22 -70.5h111v-51h-165q0 61 21 122t48 99q25 32 34.5 53t9.5 35q-1 22 -8.5 31.5t-25.5 9.5q-14 0 -22 -8t-10 -27h-47q0 34 22.5 59t56.5 25q38 0 62 -25t24 -65z" />
    <glyph glyph-name="threesuperior" unicode="&#xb3;" horiz-adv-x="235" 
d="M200 401q0 -59 -22 -89t-60 -30q-41 0 -62 25.5t-21 64.5h53q5 -39 30 -39q32 -1 32 68q0 66 -32 66h-17v51h17q25 0 27 54q-2 60 -27 60q-26 -1 -26 -34h-52q1 36 21.5 59.5t54.5 23.5q36 0 57 -29.5t21 -79.5t-23 -76q29 -37 29 -95z" />
    <glyph glyph-name="acute" unicode="&#xb4;" horiz-adv-x="195" 
d="M73 563h-57l53 107h111z" />
    <glyph glyph-name="mu" unicode="&#xb5;" horiz-adv-x="325" 
d="M281 489v-489l-84 -42v63q-14 -33 -43 -34q-19 1 -25 23v-123l-85 -42v644h85v-365q4 -36 36 -36q31 4 32 38v363h84z" />
    <glyph glyph-name="paragraph" unicode="&#xb6;" horiz-adv-x="375" 
d="M142 0v375q-55 3 -89 41q-34 39 -34 104q0 74 41 114q38 36 103 36h194v-62h-45v-608h-52v608h-68v-608h-50z" />
    <glyph glyph-name="periodcentered" unicode="&#xb7;" horiz-adv-x="165" 
d="M37 456q0 19 13.5 32t31.5 13q19 0 32 -12.5t13 -32.5q0 -19 -13 -32t-32 -13q-18 0 -31.5 13t-13.5 32z" />
    <glyph glyph-name="cedilla" unicode="&#xb8;" horiz-adv-x="265" 
d="M26 -176v54q30 -9 57 -13.5t47 -4.5q17 0 25 7.5t8 23.5q0 12 -10.5 18t-35.5 6h-12.5h-8.5v85h44v-32h8q42 0 66 -20t24 -58q0 -43 -26 -65t-75 -22q-22 0 -49.5 5.5t-61.5 15.5z" />
    <glyph glyph-name="onesuperior" unicode="&#xb9;" horiz-adv-x="175" 
d="M131 282h-55v333h-33v45q31 3 49 21h39v-399z" />
    <glyph glyph-name="ordmasculine" unicode="&#xba;" horiz-adv-x="235" 
d="M201 515q1 -97 -20 -133t-61 -36q-44 0 -65.5 40.5t-20.5 126.5q0 82 18 125t68 43q45 0 63 -43.5t18 -122.5zM149 515q-4 76 -8.5 91.5t-20.5 16.5q-17 -1 -23 -16t-8 -93q1 -64 6.5 -86t24.5 -24q18 1 23 24t6 87z" />
    <glyph glyph-name="guillemotright" unicode="&#xbb;" horiz-adv-x="515" 
d="M371 501l117 -205l-117 -205h-117l116 205l-116 205h117zM144 501l117 -205l-117 -205h-117l116 205l-116 205h117z" />
    <glyph glyph-name="onequarter" unicode="&#xbc;" horiz-adv-x="685" 
d="M629 109h-23v-109h-54v109h-135v54l135 272h54v-272h23v-54zM551 163v149l-74 -149h74zM108 0l388 682h53l-387 -682h-54zM153 247h-60v357h-38v50q36 3 54 27h44v-434z" />
    <glyph glyph-name="onehalf" unicode="&#xbd;" horiz-adv-x="745" 
d="M115 0l388 682h53l-387 -682h-54zM157 247h-60v357h-38v50q36 3 54 27h44v-434zM686 336q0 -24 -11 -47t-38 -64q-31 -45 -52 -92.5t-24 -76.5h125v-56h-190q0 67 25.5 133t57.5 108q25 35 37 58t12 37q-1 25 -10.5 35t-26.5 11q-15 0 -25.5 -8.5t-13.5 -29.5h-56
q0 36 27 63.5t68 27.5q42 0 68.5 -27t26.5 -72z" />
    <glyph glyph-name="threequarters" unicode="&#xbe;" horiz-adv-x="695" 
d="M644 109h-23v-109h-57v109h-138v54l138 272h57v-272h23v-54zM564 165v149l-74 -149h74zM230 376q0 -64 -24.5 -96.5t-65.5 -32.5q-44 0 -67 28t-23 69h57q6 -42 33 -42q35 -1 35 74q0 73 -35 73h-18v54h18q28 0 30 60q-2 65 -30 65q-29 -2 -29 -37h-55q1 39 23 64.5
t59 25.5q39 0 61.5 -32t22.5 -87q0 -54 -25 -83q33 -40 33 -103zM133 0l388 682h53l-387 -682h-54z" />
    <glyph glyph-name="questiondown" unicode="&#xbf;" horiz-adv-x="355" 
d="M33 143q6 41 21 79t31 87.5t28 100t17 89.5h95q-7 -51 -24.5 -111t-34.5 -103.5l-29.5 -78t-16.5 -63.5q1 -39 17.5 -55t38.5 -16q25 0 41 16t18 41h87q-3 -63 -43.5 -102t-102.5 -39q-63 0 -103 43t-40 112zM128 631q0 20 14.5 35t35.5 15q19 0 34 -15t15 -35
t-14.5 -34.5t-34.5 -14.5q-21 0 -35.5 14t-14.5 35z" />
    <glyph glyph-name="Agrave" unicode="&#xc0;" 
d="M239 279l-37 217l-36 -217h73zM383 0h-89l-38 179h-110l-38 -179h-87l139 670h84zM120 799h111l53 -107h-57z" />
    <glyph glyph-name="Aacute" unicode="&#xc1;" 
d="M177 692h-57l53 107h111zM383 0h-89l-38 179h-110l-38 -179h-87l139 670h84zM239 279l-37 217l-36 -217h73z" />
    <glyph glyph-name="Acircumflex" unicode="&#xc2;" 
d="M88 699l67 109h90l71 -109h-57l-59 59l-59 -59h-53zM383 0h-89l-38 179h-110l-38 -179h-87l139 670h84zM239 279l-37 217l-36 -217h73z" />
    <glyph glyph-name="Atilde" unicode="&#xc3;" 
d="M330 800q-11 -49 -32 -72t-53 -23q-8 0 -15 1t-15 4l-36 10q-9 2 -15 3.5t-11 1.5q-13 0 -21 -7t-14 -23h-43q7 48 28 70.5t52 22.5q8 -1 17 -2t19 -4l37 -10q4 -2 9.5 -3t12.5 -1q13 0 21 8.5t13 23.5h46zM383 0h-89l-38 179h-110l-38 -179h-87l139 670h84zM239 279
l-37 217l-36 -217h73z" />
    <glyph glyph-name="Adieresis" unicode="&#xc4;" 
d="M239 279l-37 217l-36 -217h73zM383 0h-89l-38 179h-110l-38 -179h-87l139 670h84zM72 756q0 19 13.5 32t31.5 13q19 0 32 -12.5t13 -32.5q0 -19 -13 -32t-32 -13q-18 0 -31.5 13t-13.5 32zM242 756q0 19 13.5 32t31.5 13q19 0 32 -12.5t13 -32.5q0 -19 -13 -32t-32 -13
q-18 0 -31.5 13t-13.5 32z" />
    <glyph glyph-name="Aring" unicode="&#xc5;" 
d="M300 768h-36q1 25 -17.5 43t-44.5 18t-44.5 -17.5t-18.5 -43.5q0 -25 18.5 -43.5t44.5 -18.5t44.5 18.5t17.5 43.5h36q0 -40 -29 -69t-69 -29t-68.5 29t-28.5 69q0 41 28 69t69 28q39 0 68.5 -28.5t29.5 -68.5zM383 0h-89l-38 179h-110l-38 -179h-87l139 670h84zM239 279
l-37 217l-36 -217h73z" />
    <glyph glyph-name="AE" unicode="&#xc6;" horiz-adv-x="605" 
d="M316 530l-86 -251h86v-100h-128l-64 -179h-91l248 670h282v-87h-163v-172h109v-89h-109v-235h172v-87h-256v530z" />
    <glyph glyph-name="Ccedilla" unicode="&#xc7;" horiz-adv-x="385" 
d="M199 597q-27 1 -44.5 -32t-23.5 -232q6 -186 25 -219t48 -31q44 0 50 65h83q0 -77 -40.5 -118.5t-94.5 -41.5q-84 0 -118 77.5t-36 268.5q2 205 40 276t114 71q50 0 92.5 -39.5t42.5 -111.5h-83q-2 66 -55 67zM108 -176v54q30 -9 57 -13.5t47 -4.5q17 0 25 7.5t8 23.5
q0 12 -10.5 18t-35.5 6h-12.5h-8.5v85h44v-32h8q42 0 66 -20t24 -58q0 -43 -26 -65t-75 -22q-22 0 -49.5 5.5t-61.5 15.5z" />
    <glyph glyph-name="Egrave" unicode="&#xc8;" horiz-adv-x="325" 
d="M81 799h111l53 -107h-57zM291 0h-256v670h247v-87h-163v-172h109v-89h-109v-235h172v-87z" />
    <glyph glyph-name="Eacute" unicode="&#xc9;" horiz-adv-x="325" 
d="M138 692h-57l53 107h111zM291 0h-256v670h247v-87h-163v-172h109v-89h-109v-235h172v-87z" />
    <glyph glyph-name="Ecircumflex" unicode="&#xca;" horiz-adv-x="325" 
d="M49 699l67 109h90l71 -109h-57l-59 59l-59 -59h-53zM291 0h-256v670h247v-87h-163v-172h109v-89h-109v-235h172v-87z" />
    <glyph glyph-name="Edieresis" unicode="&#xcb;" horiz-adv-x="325" 
d="M33 756q0 19 13.5 32t31.5 13q19 0 32 -12.5t13 -32.5q0 -19 -13 -32t-32 -13q-18 0 -31.5 13t-13.5 32zM203 756q0 19 13.5 32t31.5 13q19 0 32 -12.5t13 -32.5q0 -19 -13 -32t-32 -13q-18 0 -31.5 13t-13.5 32zM291 0h-256v670h247v-87h-163v-172h109v-89h-109v-235
h172v-87z" />
    <glyph glyph-name="Igrave" unicode="&#xcc;" horiz-adv-x="225" 
d="M31 799h111l53 -107h-57zM155 0h-84v670h84v-670z" />
    <glyph glyph-name="Iacute" unicode="&#xcd;" horiz-adv-x="225" 
d="M88 692h-57l53 107h111zM155 0h-84v670h84v-670z" />
    <glyph glyph-name="Icircumflex" unicode="&#xce;" horiz-adv-x="225" 
d="M-1 699l67 109h90l71 -109h-57l-59 59l-59 -59h-53zM155 0h-84v670h84v-670z" />
    <glyph glyph-name="Idieresis" unicode="&#xcf;" horiz-adv-x="225" 
d="M-17 756q0 19 13.5 32t31.5 13q19 0 32 -12.5t13 -32.5q0 -19 -13 -32t-32 -13q-18 0 -31.5 13t-13.5 32zM153 756q0 19 13.5 32t31.5 13q19 0 32 -12.5t13 -32.5q0 -19 -13 -32t-32 -13q-18 0 -31.5 13t-13.5 32zM155 0h-84v670h84v-670z" />
    <glyph glyph-name="Eth" unicode="&#xd0;" horiz-adv-x="395" 
d="M359 335q0 -165 -36.5 -250t-114.5 -85h-138v670h138q78 0 114.5 -75.5t36.5 -259.5zM275 335q-2 168 -23 208.5t-55 39.5h-43v-496h43q33 -1 55 50t23 198zM197 289h-162v87h162v-87z" />
    <glyph glyph-name="Ntilde" unicode="&#xd1;" 
d="M347 0h-78l-127 397v-397h-84v670h84l120 -365v365h85v-670zM330 800q-11 -49 -32 -72t-53 -23q-8 0 -15 1t-15 4l-36 10q-9 2 -15 3.5t-11 1.5q-13 0 -21 -7t-14 -23h-43q7 48 28 70.5t52 22.5q8 -1 17 -2t19 -4l37 -10q4 -2 9.5 -3t12.5 -1q13 0 21 8.5t13 23.5h46z
" />
    <glyph glyph-name="Ograve" unicode="&#xd2;" 
d="M203 681q-88 0 -124 -82t-36 -265q0 -176 36 -261.5t124 -85.5t124 85.5t36 261.5q0 183 -36 265t-124 82zM201 587q31 0 50 -35.5t23 -214.5q-4 -179 -23 -214.5t-50 -35.5q-30 0 -49 35.5t-23 214.5q4 179 23 214.5t49 35.5zM120 799h111l53 -107h-57z" />
    <glyph glyph-name="Oacute" unicode="&#xd3;" 
d="M203 681q88 0 124 -82t36 -265q0 -176 -36 -261.5t-124 -85.5t-124 85.5t-36 261.5q0 183 36 265t124 82zM201 587q-30 0 -49 -35.5t-23 -214.5q4 -179 23 -214.5t49 -35.5q31 0 50 35.5t23 214.5q-4 179 -23 214.5t-50 35.5zM177 692h-57l53 107h111z" />
    <glyph glyph-name="Ocircumflex" unicode="&#xd4;" 
d="M203 681q-88 0 -124 -82t-36 -265q0 -176 36 -261.5t124 -85.5t124 85.5t36 261.5q0 183 -36 265t-124 82zM201 587q31 0 50 -35.5t23 -214.5q-4 -179 -23 -214.5t-50 -35.5q-30 0 -49 35.5t-23 214.5q4 179 23 214.5t49 35.5zM88 699l67 109h90l71 -109h-57l-59 59
l-59 -59h-53z" />
    <glyph glyph-name="Otilde" unicode="&#xd5;" 
d="M203 681q-88 0 -124 -82t-36 -265q0 -176 36 -261.5t124 -85.5t124 85.5t36 261.5q0 183 -36 265t-124 82zM201 587q31 0 50 -35.5t23 -214.5q-4 -179 -23 -214.5t-50 -35.5q-30 0 -49 35.5t-23 214.5q4 179 23 214.5t49 35.5zM330 800q-11 -49 -32 -72t-53 -23
q-8 0 -15 1t-15 4l-36 10q-9 2 -15 3.5t-11 1.5q-13 0 -21 -7t-14 -23h-43q7 48 28 70.5t52 22.5q8 -1 17 -2t19 -4l37 -10q4 -2 9.5 -3t12.5 -1q13 0 21 8.5t13 23.5h46z" />
    <glyph glyph-name="Odieresis" unicode="&#xd6;" 
d="M203 681q-88 0 -124 -82t-36 -265q0 -176 36 -261.5t124 -85.5t124 85.5t36 261.5q0 183 -36 265t-124 82zM201 587q31 0 50 -35.5t23 -214.5q-4 -179 -23 -214.5t-50 -35.5q-30 0 -49 35.5t-23 214.5q4 179 23 214.5t49 35.5zM72 756q0 19 13.5 32t31.5 13
q19 0 32 -12.5t13 -32.5q0 -19 -13 -32t-32 -13q-18 0 -31.5 13t-13.5 32zM242 756q0 19 13.5 32t31.5 13q19 0 32 -12.5t13 -32.5q0 -19 -13 -32t-32 -13q-18 0 -31.5 13t-13.5 32z" />
    <glyph glyph-name="multiply" unicode="&#xd7;" horiz-adv-x="584" 
d="M79 200l153 154l-153 153l60 59l153 -153l153 153l58 -59l-152 -153l153 -153l-59 -60l-153 153l-154 -153z" />
    <glyph glyph-name="Oslash" unicode="&#xd8;" 
d="M203 681q88 0 124 -82t36 -265q0 -176 -36 -261.5t-124 -85.5t-124 85.5t-36 261.5q0 183 36 265t124 82zM201 587q-30 0 -49 -35.5t-23 -214.5q4 -179 23 -214.5t49 -35.5q31 0 50 35.5t23 214.5q-4 179 -23 214.5t-50 35.5zM58 -13h-58l343 694h62z" />
    <glyph glyph-name="Ugrave" unicode="&#xd9;" 
d="M347 164q0 -65 -21 -105q-38 -71 -122 -71q-100 0 -134 92q-12 32 -12 84v506h84v-517q0 -78 62 -78q58 0 58 78v517h85v-506zM120 799h111l53 -107h-57z" />
    <glyph glyph-name="Uacute" unicode="&#xda;" 
d="M347 164q0 -65 -21 -105q-38 -71 -122 -71q-100 0 -134 92q-12 32 -12 84v506h84v-517q0 -78 62 -78q58 0 58 78v517h85v-506zM177 692h-57l53 107h111z" />
    <glyph glyph-name="Ucircumflex" unicode="&#xdb;" 
d="M347 164q0 -65 -21 -105q-38 -71 -122 -71q-100 0 -134 92q-12 32 -12 84v506h84v-517q0 -78 62 -78q58 0 58 78v517h85v-506zM88 699l67 109h90l71 -109h-57l-59 59l-59 -59h-53z" />
    <glyph glyph-name="Udieresis" unicode="&#xdc;" 
d="M347 164q0 -65 -21 -105q-38 -71 -122 -71q-100 0 -134 92q-12 32 -12 84v506h84v-517q0 -78 62 -78q58 0 58 78v517h85v-506zM72 756q0 19 13.5 32t31.5 13q19 0 32 -12.5t13 -32.5q0 -19 -13 -32t-32 -13q-18 0 -31.5 13t-13.5 32zM242 756q0 19 13.5 32t31.5 13
q19 0 32 -12.5t13 -32.5q0 -19 -13 -32t-32 -13q-18 0 -31.5 13t-13.5 32z" />
    <glyph glyph-name="Yacute" unicode="&#xdd;" 
d="M382 670l-137 -367v-303h-87v303l-136 367h92l89 -235l87 235h92zM177 692h-57l53 107h111z" />
    <glyph glyph-name="Thorn" unicode="&#xde;" horiz-adv-x="395" 
d="M342 340q0 -74 -45 -122t-110 -47h-50v-171h-84v670h84v-142h47q67 0 112.5 -48.5t45.5 -139.5zM255 344q0 50 -20.5 73.5t-54.5 23.5h-43v-181h50q32 3 50 26t18 58z" />
    <glyph glyph-name="germandbls" unicode="&#xdf;" horiz-adv-x="355" 
d="M322 195q0 -103 -39 -155t-104 -52h-29v89h29q56 -2 56 118q0 115 -56 115h-29v87h29q44 0 47 95q1 49 -10.5 75.5t-36.5 27.5q-23 1 -36.5 -15t-14.5 -42v-651l-84 -42v692q2 62 37 103t95 41q62 0 98 -51.5t36 -138.5q0 -86 -40 -132q52 -64 52 -164z" />
    <glyph glyph-name="agrave" unicode="&#xe0;" horiz-adv-x="315" 
d="M281 0h-78v14q-19 -26 -55 -26q-113 3 -113 162q0 176 115 182q22 0 46 -10v35q0 52 -37 52q-41 2 -65 -35l-55 55q39 66 117 72q125 0 125 -147v-354zM196 112v118q-16 11 -41 11q-38 -3 -38 -89q1 -81 46 -79q28 1 33 39zM76 635h111l53 -107h-57z" />
    <glyph glyph-name="aacute" unicode="&#xe1;" horiz-adv-x="315" 
d="M133 528h-57l53 107h111zM281 0h-78v14q-19 -26 -55 -26q-113 3 -113 162q0 176 115 182q22 0 46 -10v35q0 52 -37 52q-41 2 -65 -35l-55 55q39 66 117 72q125 0 125 -147v-354zM196 112v118q-16 11 -41 11q-38 -3 -38 -89q1 -81 46 -79q28 1 33 39z" />
    <glyph glyph-name="acircumflex" unicode="&#xe2;" horiz-adv-x="315" 
d="M43 531l67 109h90l71 -109h-57l-59 59l-59 -59h-53zM281 0h-78v14q-19 -26 -55 -26q-113 3 -113 162q0 176 115 182q22 0 46 -10v35q0 52 -37 52q-41 2 -65 -35l-55 55q39 66 117 72q125 0 125 -147v-354zM196 112v118q-16 11 -41 11q-38 -3 -38 -89q1 -81 46 -79
q28 1 33 39z" />
    <glyph glyph-name="atilde" unicode="&#xe3;" horiz-adv-x="315" 
d="M285 625q-11 -49 -32 -72t-53 -23q-8 0 -15 1t-15 4l-36 10q-9 2 -15 3.5t-11 1.5q-13 0 -21 -7t-14 -23h-43q7 48 28 70.5t52 22.5q8 -1 17 -2t19 -4l37 -10q4 -2 9.5 -3t12.5 -1q13 0 21 8.5t13 23.5h46zM281 0h-78v14q-19 -26 -55 -26q-113 3 -113 162q0 176 115 182
q22 0 46 -10v35q0 52 -37 52q-41 2 -65 -35l-55 55q39 66 117 72q125 0 125 -147v-354zM196 112v118q-16 11 -41 11q-38 -3 -38 -89q1 -81 46 -79q28 1 33 39z" />
    <glyph glyph-name="adieresis" unicode="&#xe4;" horiz-adv-x="315" 
d="M27 580q0 19 13.5 32t31.5 13q19 0 32 -12.5t13 -32.5q0 -19 -13 -32t-32 -13q-18 0 -31.5 13t-13.5 32zM197 580q0 19 13.5 32t31.5 13q19 0 32 -12.5t13 -32.5q0 -19 -13 -32t-32 -13q-18 0 -31.5 13t-13.5 32zM281 0h-78v14q-19 -26 -55 -26q-113 3 -113 162
q0 176 115 182q22 0 46 -10v35q0 52 -37 52q-41 2 -65 -35l-55 55q39 66 117 72q125 0 125 -147v-354zM196 112v118q-16 11 -41 11q-38 -3 -38 -89q1 -81 46 -79q28 1 33 39z" />
    <glyph glyph-name="aring" unicode="&#xe5;" horiz-adv-x="315" 
d="M255 619h-36q1 25 -17.5 43t-44.5 18t-44.5 -17.5t-18.5 -43.5q0 -25 18.5 -43.5t44.5 -18.5t44.5 18.5t17.5 43.5h36q0 -40 -29 -69t-69 -29t-68.5 29t-28.5 69q0 41 28 69t69 28q39 0 68.5 -28.5t29.5 -68.5zM281 0h-78v14q-19 -26 -55 -26q-113 3 -113 162
q0 176 115 182q22 0 46 -10v35q0 52 -37 52q-41 2 -65 -35l-55 55q39 66 117 72q125 0 125 -147v-354zM196 112v118q-16 11 -41 11q-38 -3 -38 -89q1 -81 46 -79q28 1 33 39z" />
    <glyph glyph-name="ae" unicode="&#xe6;" horiz-adv-x="475" 
d="M276 117q-14 -129 -128 -129q-113 3 -113 162q0 176 115 182q22 0 46 -10v35q0 52 -37 52q-41 2 -65 -35l-55 55q39 66 117 72q125 0 120 -171v-213zM196 112v118q-16 11 -41 11q-38 -3 -38 -89q1 -81 46 -79q28 1 33 39zM440 195h-162q3 -117 51 -118q28 0 38 40l70 -35
q-23 -93 -105 -94q-66 0 -101 54.5t-35 199.5q0 110 29 184.5t95 74.5q67 0 93 -72.5t27 -233.5zM360 282q-1 76 -11 101.5t-29 24.5q-23 1 -32.5 -27t-9.5 -99h82z" />
    <glyph glyph-name="ccedilla" unicode="&#xe7;" horiz-adv-x="315" 
d="M211 361q-8 49 -44 49q-24 1 -34.5 -21.5t-13.5 -141.5q3 -125 15.5 -146.5t37.5 -20.5q29 3 37 43l69 -34q-21 -97 -105 -100q-66 0 -101 54.5t-35 201.5q0 151 32 204t98 53q90 -6 111 -107zM79 -176v54q30 -9 57 -13.5t47 -4.5q17 0 25 7.5t8 23.5q0 12 -10.5 18
t-35.5 6h-12.5h-8.5v85h44v-32h8q42 0 66 -20t24 -58q0 -43 -26 -65t-75 -22q-22 0 -49.5 5.5t-61.5 15.5z" />
    <glyph glyph-name="egrave" unicode="&#xe8;" horiz-adv-x="315" 
d="M280 195h-162q3 -117 51 -118q28 0 38 40l70 -35q-23 -93 -105 -94q-66 0 -101 54.5t-35 199.5q0 110 29 184.5t95 74.5q67 0 93 -72.5t27 -233.5zM200 282q-1 76 -11 101.5t-29 24.5q-23 1 -32.5 -27t-9.5 -99h82zM76 635h111l53 -107h-57z" />
    <glyph glyph-name="eacute" unicode="&#xe9;" horiz-adv-x="315" 
d="M280 195h-162q3 -117 51 -118q28 0 38 40l70 -35q-23 -93 -105 -94q-66 0 -101 54.5t-35 199.5q0 110 29 184.5t95 74.5q67 0 93 -72.5t27 -233.5zM200 282q-1 76 -11 101.5t-29 24.5q-23 1 -32.5 -27t-9.5 -99h82zM133 528h-57l53 107h111z" />
    <glyph glyph-name="ecircumflex" unicode="&#xea;" horiz-adv-x="315" 
d="M280 195h-162q3 -117 51 -118q28 0 38 40l70 -35q-23 -93 -105 -94q-66 0 -101 54.5t-35 199.5q0 110 29 184.5t95 74.5q67 0 93 -72.5t27 -233.5zM200 282q-1 76 -11 101.5t-29 24.5q-23 1 -32.5 -27t-9.5 -99h82zM43 531l67 109h90l71 -109h-57l-59 59l-59 -59h-53z
" />
    <glyph glyph-name="edieresis" unicode="&#xeb;" horiz-adv-x="315" 
d="M280 195h-162q3 -117 51 -118q28 0 38 40l70 -35q-23 -93 -105 -94q-66 0 -101 54.5t-35 199.5q0 110 29 184.5t95 74.5q67 0 93 -72.5t27 -233.5zM200 282q-1 76 -11 101.5t-29 24.5q-23 1 -32.5 -27t-9.5 -99h82zM27 580q0 19 13.5 32t31.5 13q19 0 32 -12.5t13 -32.5
q0 -19 -13 -32t-32 -13q-18 0 -31.5 13t-13.5 32zM197 580q0 19 13.5 32t31.5 13q19 0 32 -12.5t13 -32.5q0 -19 -13 -32t-32 -13q-18 0 -31.5 13t-13.5 32z" />
    <glyph glyph-name="igrave" unicode="&#xec;" horiz-adv-x="165" 
d="M1 635h111l53 -107h-57zM125 0h-85v489h85v-489z" />
    <glyph glyph-name="iacute" unicode="&#xed;" horiz-adv-x="165" 
d="M58 528h-57l53 107h111zM125 0h-85v489h85v-489z" />
    <glyph glyph-name="icircumflex" unicode="&#xee;" horiz-adv-x="165" 
d="M-31 531l67 109h90l71 -109h-57l-59 59l-59 -59h-53zM125 0h-85v489h85v-489z" />
    <glyph glyph-name="idieresis" unicode="&#xef;" horiz-adv-x="165" 
d="M-47 580q0 19 13.5 32t31.5 13q19 0 32 -12.5t13 -32.5q0 -19 -13 -32t-32 -13q-18 0 -31.5 13t-13.5 32zM123 580q0 19 13.5 32t31.5 13q19 0 32 -12.5t13 -32.5q0 -19 -13 -32t-32 -13q-18 0 -31.5 13t-13.5 32zM125 0h-85v489h85v-489z" />
    <glyph glyph-name="eth" unicode="&#xf0;" horiz-adv-x="315" 
d="M281 226q1 -137 -30 -187.5t-89 -50.5q-66 0 -98 57.5t-30 178.5q0 114 26.5 175t88.5 63q12 -1 21 -9q-20 44 -53.5 88t-65.5 69l35 72q32 -21 76.5 -70t72.5 -108.5t36.5 -123.5t9.5 -154zM204 225q-6 100 -12.5 120t-30.5 21q-24 -1 -33 -21t-13 -122q2 -83 10 -112
t36 -31q27 1 34.5 31t8.5 114zM32 500l178 178l40 -40l-178 -178z" />
    <glyph glyph-name="ntilde" unicode="&#xf1;" horiz-adv-x="325" 
d="M290 625q-11 -49 -32 -72t-53 -23q-8 0 -15 1t-15 4l-36 10q-9 2 -15 3.5t-11 1.5q-13 0 -21 -7t-14 -23h-43q7 48 28 70.5t52 22.5q8 -1 17 -2t19 -4l37 -10q4 -2 9.5 -3t12.5 -1q13 0 21 8.5t13 23.5h46zM44 0v498h84v-30q24 33 61 33q42 -1 67 -37t25 -77v-387h-85
v365q-4 36 -36 36q-31 -4 -32 -38v-363h-84z" />
    <glyph glyph-name="ograve" unicode="&#xf2;" horiz-adv-x="315" 
d="M281 247q1 -149 -30 -204t-89 -55q-66 0 -98 62.5t-30 193.5q0 125 26.5 191t100.5 66q67 0 93.5 -67t26.5 -187zM204 247q-6 116 -12.5 139.5t-30.5 24.5q-24 -1 -33 -24t-13 -142q2 -97 10 -131t36 -36q27 1 34.5 36t8.5 133zM76 635h111l53 -107h-57z" />
    <glyph glyph-name="oacute" unicode="&#xf3;" horiz-adv-x="315" 
d="M281 247q1 -149 -30 -204t-89 -55q-66 0 -98 62.5t-30 193.5q0 125 26.5 191t100.5 66q67 0 93.5 -67t26.5 -187zM204 247q-6 116 -12.5 139.5t-30.5 24.5q-24 -1 -33 -24t-13 -142q2 -97 10 -131t36 -36q27 1 34.5 36t8.5 133zM133 528h-57l53 107h111z" />
    <glyph glyph-name="ocircumflex" unicode="&#xf4;" horiz-adv-x="315" 
d="M281 247q1 -149 -30 -204t-89 -55q-66 0 -98 62.5t-30 193.5q0 125 26.5 191t100.5 66q67 0 93.5 -67t26.5 -187zM204 247q-6 116 -12.5 139.5t-30.5 24.5q-24 -1 -33 -24t-13 -142q2 -97 10 -131t36 -36q27 1 34.5 36t8.5 133zM43 531l67 109h90l71 -109h-57l-59 59
l-59 -59h-53z" />
    <glyph glyph-name="otilde" unicode="&#xf5;" horiz-adv-x="315" 
d="M281 247q1 -149 -30 -204t-89 -55q-66 0 -98 62.5t-30 193.5q0 125 26.5 191t100.5 66q67 0 93.5 -67t26.5 -187zM204 247q-6 116 -12.5 139.5t-30.5 24.5q-24 -1 -33 -24t-13 -142q2 -97 10 -131t36 -36q27 1 34.5 36t8.5 133zM285 625q-11 -49 -32 -72t-53 -23
q-8 0 -15 1t-15 4l-36 10q-9 2 -15 3.5t-11 1.5q-13 0 -21 -7t-14 -23h-43q7 48 28 70.5t52 22.5q8 -1 17 -2t19 -4l37 -10q4 -2 9.5 -3t12.5 -1q13 0 21 8.5t13 23.5h46z" />
    <glyph glyph-name="odieresis" unicode="&#xf6;" horiz-adv-x="315" 
d="M281 247q1 -149 -30 -204t-89 -55q-66 0 -98 62.5t-30 193.5q0 125 26.5 191t100.5 66q67 0 93.5 -67t26.5 -187zM204 247q-6 116 -12.5 139.5t-30.5 24.5q-24 -1 -33 -24t-13 -142q2 -97 10 -131t36 -36q27 1 34.5 36t8.5 133zM27 580q0 19 13.5 32t31.5 13
q19 0 32 -12.5t13 -32.5q0 -19 -13 -32t-32 -13q-18 0 -31.5 13t-13.5 32zM197 580q0 19 13.5 32t31.5 13q19 0 32 -12.5t13 -32.5q0 -19 -13 -32t-32 -13q-18 0 -31.5 13t-13.5 32z" />
    <glyph glyph-name="divide" unicode="&#xf7;" horiz-adv-x="575" 
d="M288 284q22 0 39.5 -17t17.5 -41t-17.5 -41t-39.5 -17q-25 0 -42 17t-17 41t17 41t42 17zM58 415h460v-76h-460v76zM288 584q22 0 39.5 -16.5t17.5 -40.5t-17.5 -41t-39.5 -17q-25 0 -42 17t-17 41t17 40.5t42 16.5z" />
    <glyph glyph-name="oslash" unicode="&#xf8;" horiz-adv-x="315" 
d="M281 247q1 -149 -30 -204t-89 -55q-66 0 -98 62.5t-30 193.5q0 125 26.5 191t100.5 66q67 0 93.5 -67t26.5 -187zM204 247q-6 116 -12.5 139.5t-30.5 24.5q-24 -1 -33 -24t-13 -142q2 -97 10 -131t36 -36q27 1 34.5 36t8.5 133zM315 501l-257 -514h-58l256 514h59z" />
    <glyph glyph-name="ugrave" unicode="&#xf9;" horiz-adv-x="325" 
d="M281 489v-489h-84v21q-24 -33 -61 -33q-42 1 -67 37t-25 77v387h85v-365q4 -36 36 -36q31 4 32 38v363h84zM81 635h111l53 -107h-57z" />
    <glyph glyph-name="uacute" unicode="&#xfa;" horiz-adv-x="325" 
d="M138 528h-57l53 107h111zM281 489v-489h-84v21q-24 -33 -61 -33q-42 1 -67 37t-25 77v387h85v-365q4 -36 36 -36q31 4 32 38v363h84z" />
    <glyph glyph-name="ucircumflex" unicode="&#xfb;" horiz-adv-x="325" 
d="M48 531l67 109h90l71 -109h-57l-59 59l-59 -59h-53zM281 489v-489h-84v21q-24 -33 -61 -33q-42 1 -67 37t-25 77v387h85v-365q4 -36 36 -36q31 4 32 38v363h84z" />
    <glyph glyph-name="udieresis" unicode="&#xfc;" horiz-adv-x="325" 
d="M32 580q0 19 13.5 32t31.5 13q19 0 32 -12.5t13 -32.5q0 -19 -13 -32t-32 -13q-18 0 -31.5 13t-13.5 32zM202 580q0 19 13.5 32t31.5 13q19 0 32 -12.5t13 -32.5q0 -19 -13 -32t-32 -13q-18 0 -31.5 13t-13.5 32zM281 489v-489h-84v21q-24 -33 -61 -33q-42 1 -67 37
t-25 77v387h85v-365q4 -36 36 -36q31 4 32 38v363h84z" />
    <glyph glyph-name="yacute" unicode="&#xfd;" horiz-adv-x="335" 
d="M142 528h-57l53 107h111zM322 491l-160 -733h-84l54 242l-118 491h87l73 -303l63 303h85z" />
    <glyph glyph-name="thorn" unicode="&#xfe;" horiz-adv-x="325" 
d="M114 681v-201q16 21 46 21q124 -3 124 -264q0 -249 -119 -249q-28 -1 -41 16v-204l-84 -42v886zM122 107q3 -34 33 -34q46 -2 47 164q0 172 -45 172q-30 0 -35 -36v-266z" />
    <glyph glyph-name="ydieresis" unicode="&#xff;" horiz-adv-x="335" 
d="M37 580q0 19 13.5 32t31.5 13q19 0 32 -12.5t13 -32.5q0 -19 -13 -32t-32 -13q-18 0 -31.5 13t-13.5 32zM207 580q0 19 13.5 32t31.5 13q19 0 32 -12.5t13 -32.5q0 -19 -13 -32t-32 -13q-18 0 -31.5 13t-13.5 32zM322 491l-160 -733h-84l54 242l-118 491h87l73 -303
l63 303h85z" />
  </font>
</defs>
</svg>
